<?xml version="1.0" ?><svg viewBox="0 0 32 32" xmlns="http://www.w3.org/2000/svg"><defs><style>.cls-1{fill:none;stroke:#000;stroke-linecap:round;stroke-linejoin:round;stroke-width:2px;}</style></defs><title/><g data-name="59-phone" id="_59-phone"><path class="cls-1" d="M25,16V3a2,2,0,0,0-2-2H9A2,2,0,0,0,7,3V29a2,2,0,0,0,2,2h6"/><path class="cls-1" d="M20,1V3a2,2,0,0,1-2,2H14a2,2,0,0,1-2-2V1"/><path class="cls-1" d="M19,19A12,12,0,0,1,31,31"/><path class="cls-1" d="M19,24a7,7,0,0,1,7,7"/><path class="cls-1" d="M19,29a2,2,0,0,1,2,2"/></g></svg>