<?xml version="1.0" ?><svg data-name="Capa 1" id="Capa_1" viewBox="0 0 20 19.84" xmlns="http://www.w3.org/2000/svg"><path d="M15.94,4a.71.71,0,0,0-.54-.17,13.09,13.09,0,0,0-4.07,1.14,9.09,9.09,0,0,0-2,1.5.6.6,0,0,1-.4.18,6.4,6.4,0,0,0-2.34.69,5.72,5.72,0,0,0-1.47,1A.68.68,0,0,0,5,9a.65.65,0,0,0,.54.44l1.07.15a.61.61,0,0,0,.18.57l2.93,2.93a.62.62,0,0,0,.57.18l.15,1.06a.66.66,0,0,0,.45.54.52.52,0,0,0,.21,0,.63.63,0,0,0,.47-.2,5.93,5.93,0,0,0,1.14-1.63,6.2,6.2,0,0,0,.6-2.14.62.62,0,0,1,.18-.41,10.23,10.23,0,0,0,1.64-2.23,8.73,8.73,0,0,0,1-3.85A.67.67,0,0,0,15.94,4ZM14.48,8A10.24,10.24,0,0,1,13,10a1.37,1.37,0,0,0-.41.87A5.52,5.52,0,0,1,12,12.78a5.67,5.67,0,0,1-.88,1.31L11,12.75a.43.43,0,0,0-.29-.36.25.25,0,0,0-.13,0,.55.55,0,0,0-.32.1l-.05,0L7.39,9.74l0,0a.54.54,0,0,0,.09-.46A.5.5,0,0,0,7.16,9h0l-1.35-.2A5.35,5.35,0,0,1,7,8,5.63,5.63,0,0,1,9,7.36,1.34,1.34,0,0,0,9.89,7,8.92,8.92,0,0,1,11.7,5.58a12,12,0,0,1,3.7-1A7.83,7.83,0,0,1,14.48,8Z"/><path d="M6.22,11.78a2.38,2.38,0,0,0-1.63,1.36,16.5,16.5,0,0,0-.72,2.06.66.66,0,0,0,.64.85.55.55,0,0,0,.18,0h0a13.82,13.82,0,0,0,2.4-.87A2,2,0,0,0,8.16,13.7a1.67,1.67,0,0,0-.52-1.44A1.59,1.59,0,0,0,6.22,11.78Zm.52,2.72a11.58,11.58,0,0,1-2.1.77,14.28,14.28,0,0,1,.63-1.81,1.65,1.65,0,0,1,1.08-.94H6.5a.86.86,0,0,1,.62.28,1,1,0,0,1,.3.81A1.31,1.31,0,0,1,6.74,14.5Z"/></svg>