<svg id="Layer_1" data-name="Layer 1" xmlns="http://www.w3.org/2000/svg" viewBox="0 0 1468.57 258.11"><path d="M218.55,517.56q0-48.21,26.62-75.07t74.16-26.86q48.74,0,75.09,26.39T420.79,516q0,34.51-11.52,56.6A82.44,82.44,0,0,1,376,606.93q-21.76,12.29-54.25,12.29-33,0-54.65-10.61T232,575Q218.55,552.08,218.55,517.56Zm60.31.27q0,29.8,11,42.84t29.89,13q19.44,0,30.09-12.76t10.65-45.79q0-27.79-11.11-40.62T319.2,461.69q-18.24,0-29.29,13T278.86,517.83Z" transform="translate(-218.55 -415.63)"/><path d="M429.23,473.24h50.46v23.23q11.31-14.22,22.9-20.34T530.81,470q22.5,0,35.22,13.5t12.71,41.69v90.65H524.29V537.43q0-13.42-4.93-19t-13.84-5.57a19.64,19.64,0,0,0-16,7.52q-6.12,7.51-6.12,27v68.49H429.23Z" transform="translate(-218.55 -415.63)"/><path d="M747.62,558.11H639q1.46,13.17,7,19.61,7.86,9.27,20.51,9.27a30.63,30.63,0,0,0,15.17-4q4.39-2.55,9.46-9l53.39,5Q732.31,600.41,715,609.75t-49.66,9.33q-28.1,0-44.2-8t-26.7-25.38q-10.59-17.38-10.58-40.89,0-33.44,21.23-54.12T663.74,470q30.36,0,47.93,9.27a62.23,62.23,0,0,1,26.76,26.85q9.2,17.6,9.19,45.8ZM692.5,531.93q-1.61-15.85-8.46-22.7t-18-6.85a24.46,24.46,0,0,0-20.63,10.34q-4.93,6.45-6.26,19.21Z" transform="translate(-218.55 -415.63)"/><path d="M756.46,419h89.6q26.51,0,42.81,7.25a69.58,69.58,0,0,1,27,20.82,86.39,86.39,0,0,1,15.44,31.55,147.45,147.45,0,0,1,4.8,38.14q0,31.56-7.13,49a81,81,0,0,1-19.77,29.14Q896.53,606.6,882,610.49q-19.83,5.37-36,5.37h-89.6Zm60.31,44.58V571.14h14.78q18.9,0,26.9-4.23T871,552.14q4.53-10.54,4.53-34.18,0-31.29-10.12-42.84t-33.55-11.55Z" transform="translate(-218.55 -415.63)"/><path d="M944.24,473.24H995v23.37q7.32-15.18,15.11-20.88t19.24-5.71q12,0,26.23,7.52l-16.78,38.94q-9.58-4-15.18-4a18.68,18.68,0,0,0-16.51,8.86q-8.39,12.48-8.38,46.73v47.81H944.24Z" transform="translate(-218.55 -415.63)"/><path d="M1098.34,519.44l-51.79-5.51q2.92-13.69,8.45-21.55t15.91-13.63q7.46-4.17,20.5-6.45a164.21,164.21,0,0,1,28.23-2.28q24.36,0,39.14,2.75t24.63,11.48q6.93,6,10.92,17.13a62.13,62.13,0,0,1,4,21.15v63a77,77,0,0,0,1.26,15.78,70.63,70.63,0,0,0,5.53,14.57h-50.86a52,52,0,0,1-4-8.39,63.08,63.08,0,0,1-1.86-9.07q-10.65,10.35-21.17,14.77-14.38,5.91-33.42,5.91-25.29,0-38.41-11.82t-13.11-29.14q0-16.25,9.45-26.72t34.88-15.58q30.5-6.17,39.54-8.66a185.26,185.26,0,0,0,19.18-6.51q0-10.08-4.13-14.1t-14.51-4q-13.32,0-20,4.29Q1101.53,510.17,1098.34,519.44Zm47,28.74q-11.19,4-23.3,7.11-16.51,4.44-20.91,8.73a14.08,14.08,0,0,0-.06,20.62q4.46,4.1,13.11,4.09A33.51,33.51,0,0,0,1131,584.3q7.8-4.42,11-10.81t3.27-16.58Z" transform="translate(-218.55 -415.63)"/><path d="M1313.15,473.24h50.72v134.7l.14,6.31a59.93,59.93,0,0,1-5.66,25.58,53.83,53.83,0,0,1-15,19.67q-9.37,7.53-23.83,10.88a146.78,146.78,0,0,1-33.08,3.36q-42.62,0-58.52-12.89T1212,626.33q0-2.69.27-7.25l52.59,6q2,7.39,6.12,10.21,6,4.17,15,4.17,11.71,0,17.5-6.32t5.8-22V589.54q-8,9.54-16,13.83a56.26,56.26,0,0,1-27,6.71q-28.35,0-45.8-25-12.37-17.73-12.38-46.87,0-33.3,16-50.76t41.8-17.46q16.51,0,27.23,5.64t20,18.67Zm-51,69.16q0,15.45,6.53,22.9t17.17,7.45a21.79,21.79,0,0,0,17-7.72q6.86-7.72,6.86-23.3t-7.19-23.84q-7.2-8.25-17.58-8.26t-16.58,7.59Q1262.16,524.81,1262.15,542.4Z" transform="translate(-218.55 -415.63)"/><path d="M1369.52,545q0-32.62,21.83-53.78t59-21.15q42.48,0,64.18,24.84,17.43,20,17.44,49.29,0,32.9-21.64,53.92t-59.84,21q-34.1,0-55.12-17.46Q1369.52,580,1369.52,545Zm54.32-.13q0,19.06,7.66,28.2a24.94,24.94,0,0,0,38.47.13q7.53-9,7.53-28.87,0-18.53-7.59-27.59t-18.78-9.07a24.46,24.46,0,0,0-19.57,9.2Q1423.84,526,1423.84,544.82Z" transform="translate(-218.55 -415.63)"/><path d="M1537.59,473.24h50.47v23.23q11.31-14.22,22.9-20.34t28.22-6.11q22.5,0,35.22,13.5t12.71,41.69v90.65h-54.45V537.43q0-13.42-4.93-19t-13.85-5.57a19.62,19.62,0,0,0-16,7.52q-6.14,7.51-6.13,27v68.49h-54.19Z" transform="translate(-218.55 -415.63)"/></svg>