<?xml version="1.0" encoding="utf-8"?>
<!-- Generator: Adobe Illustrator 26.3.1, SVG Export Plug-In . SVG Version: 6.00 Build 0)  -->
<svg version="1.1" id="Layer_1" xmlns="http://www.w3.org/2000/svg" xmlns:xlink="http://www.w3.org/1999/xlink" x="0px" y="0px"
	 viewBox="0 0 760.3 133.5" style="enable-background:new 0 0 760.3 133.5;" xml:space="preserve">
<style type="text/css">
	.st0{fill:#FFFFFF;}
</style>
<g>
	<path class="st0" d="M0,52.8c0-16.6,4.6-29.6,13.8-38.9C23,4.6,35.8,0,52.2,0C69,0,81.9,4.6,91.1,13.7s13.7,21.9,13.7,38.3
		c0,11.9-2,21.7-6,29.3c-4,7.6-9.7,13.6-17.2,17.8c-7.5,4.2-16.9,6.4-28.1,6.4c-11.4,0-20.8-1.8-28.3-5.5
		C17.7,96.2,11.6,90.4,7,82.5C2.3,74.6,0,64.7,0,52.8z M31.2,52.9c0,10.3,1.9,17.7,5.7,22.2s9,6.7,15.5,6.7c6.7,0,11.9-2.2,15.6-6.6
		s5.5-12.3,5.5-23.7c0-9.6-1.9-16.6-5.8-21s-9-6.6-15.6-6.6c-6.3,0-11.3,2.2-15.2,6.7C33.1,35.1,31.2,42.5,31.2,52.9z"/>
	<path class="st0" d="M109.1,29.8h26.1v12c3.9-4.9,7.9-8.4,11.9-10.5s8.9-3.2,14.6-3.2c7.8,0,13.8,2.3,18.2,7s6.6,11.8,6.6,21.6
		v46.9h-28.2V63.1c0-4.6-0.9-7.9-2.6-9.8c-1.7-1.9-4.1-2.9-7.2-2.9c-3.4,0-6.2,1.3-8.3,3.9c-2.1,2.6-3.2,7.2-3.2,14v35.5h-28.1
		C109.1,103.7,109.1,29.8,109.1,29.8z"/>
	<path class="st0" d="M273.9,73.8h-56.2c0.5,4.5,1.7,7.9,3.6,10.2c2.7,3.2,6.2,4.8,10.6,4.8c2.8,0,5.4-0.7,7.9-2.1
		c1.5-0.9,3.1-2.4,4.9-4.7l27.6,2.6c-4.2,7.4-9.3,12.7-15.3,16s-14.5,4.8-25.7,4.8c-9.7,0-17.3-1.4-22.9-4.1
		c-5.6-2.8-10.2-7.1-13.8-13.1s-5.5-13.1-5.5-21.2c0-11.5,3.7-20.9,11-28s17.4-10.7,30.4-10.7c10.5,0,18.8,1.6,24.8,4.8
		c6.1,3.2,10.7,7.8,13.8,13.9c3.2,6.1,4.8,14,4.8,23.7L273.9,73.8L273.9,73.8z M245.4,60.2c-0.6-5.5-2-9.4-4.4-11.8
		c-2.4-2.4-5.5-3.5-9.3-3.5c-4.5,0-8,1.8-10.7,5.3c-1.7,2.2-2.8,5.5-3.2,9.9L245.4,60.2L245.4,60.2z"/>
	<path class="st0" d="M278.5,1.7h46.4c9.1,0,16.5,1.2,22.2,3.7s10.3,6.1,14,10.8c3.7,4.7,6.3,10.1,8,16.3c1.6,6.2,2.5,12.8,2.5,19.8
		c0,10.9-1.2,19.3-3.7,25.3s-5.9,11-10.2,15.1s-9,6.8-14.1,8.1c-6.9,1.8-13,2.8-18.6,2.8h-46.4L278.5,1.7L278.5,1.7z M309.7,24.8
		v55.7h7.6c6.5,0,11.2-0.7,13.9-2.2s4.9-4,6.5-7.7s2.3-9.5,2.3-17.7c0-10.8-1.8-18.2-5.2-22.2s-9.3-6-17.4-6L309.7,24.8L309.7,24.8z
		"/>
	<path class="st0" d="M375.7,29.8H402v12.1c2.5-5.2,5.1-8.8,7.8-10.8c2.7-2,6-3,10-3c4.1,0,8.7,1.3,13.6,3.9l-8.7,20.2
		c-3.3-1.4-5.9-2.1-7.9-2.1c-3.7,0-6.5,1.5-8.5,4.6c-2.9,4.3-4.3,12.4-4.3,24.2v24.8h-28.2L375.7,29.8L375.7,29.8z"/>
	<path class="st0" d="M455.5,53.7l-26.8-2.8c1-4.7,2.5-8.5,4.4-11.2s4.6-5.1,8.2-7.1c2.6-1.4,6.1-2.5,10.6-3.3
		c4.5-0.8,9.4-1.2,14.6-1.2c8.4,0,15.2,0.5,20.3,1.4s9.4,2.9,12.8,5.9c2.4,2.1,4.3,5,5.6,8.9s2.1,7.5,2.1,11v32.6
		c0,3.5,0.2,6.2,0.6,8.2c0.4,2,1.4,4.5,2.9,7.5h-26.3c-1.1-1.9-1.8-3.3-2.1-4.3c-0.3-1-0.6-2.6-1-4.7c-3.7,3.6-7.3,6.1-11,7.7
		c-5,2-10.7,3.1-17.3,3.1c-8.7,0-15.4-2-19.9-6.1c-4.5-4.1-6.8-9.1-6.8-15.1c0-5.6,1.6-10.2,4.9-13.8c3.3-3.6,9.3-6.3,18.1-8.1
		c10.5-2.1,17.4-3.6,20.5-4.5c3.1-0.9,6.4-2,9.9-3.4c0-3.5-0.7-5.9-2.1-7.3c-1.4-1.4-3.9-2.1-7.5-2.1c-4.6,0-8,0.7-10.3,2.2
		C458,48.4,456.6,50.5,455.5,53.7z M479.8,68.6c-3.9,1.4-7.9,2.6-12.1,3.7c-5.7,1.5-9.3,3-10.8,4.5c-1.6,1.5-2.3,3.3-2.3,5.2
		c0,2.2,0.8,4,2.3,5.5c1.5,1.4,3.8,2.1,6.8,2.1c3.1,0,6-0.8,8.7-2.3s4.6-3.4,5.7-5.6c1.1-2.2,1.7-5.1,1.7-8.6L479.8,68.6L479.8,68.6
		z"/>
	<path class="st0" d="M566.7,29.8h26.3v69.7l0.1,3.3c0,4.6-1,9.1-2.9,13.2c-2,4.2-4.5,7.6-7.8,10.2c-3.2,2.6-7.3,4.5-12.3,5.6
		c-5,1.2-10.7,1.7-17.1,1.7c-14.7,0-24.8-2.2-30.3-6.7s-8.2-10.4-8.2-17.9c0-0.9,0-2.2,0.1-3.8l27.2,3.1c0.7,2.6,1.8,4.3,3.2,5.3
		c2.1,1.4,4.7,2.2,7.8,2.2c4,0,7.1-1.1,9.1-3.3c2-2.2,3-6,3-11.4V90c-2.8,3.3-5.5,5.7-8.3,7.2c-4.3,2.3-9,3.5-14,3.5
		c-9.8,0-17.7-4.3-23.7-12.9c-4.3-6.1-6.4-14.2-6.4-24.3c0-11.5,2.8-20.2,8.3-26.3c5.5-6,12.7-9,21.6-9c5.7,0,10.4,1,14.1,2.9
		c3.7,1.9,7.2,5.2,10.4,9.7V29.8z M540.3,65.6c0,5.3,1.1,9.3,3.4,11.8s5.2,3.9,8.9,3.9c3.5,0,6.4-1.3,8.8-4s3.5-6.7,3.5-12.1
		s-1.2-9.5-3.7-12.3c-2.5-2.8-5.5-4.3-9.1-4.3s-6.5,1.3-8.6,3.9C541.3,55.2,540.3,59.6,540.3,65.6z"/>
	<path class="st0" d="M595.9,66.9c0-11.3,3.8-20.5,11.3-27.8c7.5-7.3,17.7-11,30.5-11c14.7,0,25.7,4.3,33.2,12.9
		c6,6.9,9,15.4,9,25.5c0,11.4-3.7,20.7-11.2,27.9c-7.5,7.2-17.8,10.9-31,10.9c-11.8,0-21.3-3-28.5-9
		C600.3,88.8,595.9,79.1,595.9,66.9z M624,66.9c0,6.6,1.3,11.4,4,14.6s6,4.7,10,4.7c4,0,7.4-1.6,10-4.7c2.6-3.1,3.9-8.1,3.9-14.9
		c0-6.4-1.3-11.2-3.9-14.3s-5.9-4.7-9.7-4.7c-4.1,0-7.5,1.6-10.1,4.8C625.3,55.6,624,60.4,624,66.9z"/>
	<path class="st0" d="M682.9,29.8H709v12c3.9-4.9,7.9-8.4,11.9-10.5s8.9-3.2,14.6-3.2c7.8,0,13.8,2.3,18.2,7
		c4.4,4.7,6.6,11.8,6.6,21.6v46.9h-28.2V63.1c0-4.6-0.8-7.9-2.5-9.8c-1.7-1.9-4.1-2.9-7.2-2.9c-3.4,0-6.2,1.3-8.3,3.9
		c-2.1,2.6-3.2,7.2-3.2,14v35.5h-28L682.9,29.8L682.9,29.8z"/>
</g>
</svg>
