<?xml version="1.0" encoding="utf-8"?>
<!-- Generator: Adobe Illustrator 26.3.1, SVG Export Plug-In . SVG Version: 6.00 Build 0)  -->
<svg version="1.1" id="Layer_1" xmlns="http://www.w3.org/2000/svg" xmlns:xlink="http://www.w3.org/1999/xlink" x="0px" y="0px"
	 viewBox="0 0 760.28 133.52" style="enable-background:new 0 0 760.28 133.52;" xml:space="preserve">
<g>
	<path d="M0,52.77C0,36.13,4.59,23.17,13.79,13.9C22.98,4.63,35.77,0,52.18,0C69,0,81.95,4.55,91.05,13.66s13.65,21.86,13.65,38.27
		c0,11.91-1.99,21.68-5.96,29.3c-3.98,7.62-9.72,13.56-17.23,17.8c-7.51,4.24-16.88,6.36-28.09,6.36c-11.4,0-20.83-1.83-28.29-5.49
		c-7.47-3.66-13.52-9.46-18.16-17.38C2.32,74.6,0,64.68,0,52.77z M31.22,52.91c0,10.29,1.9,17.68,5.69,22.18
		c3.79,4.5,8.95,6.74,15.47,6.74c6.71,0,11.9-2.2,15.58-6.6c3.68-4.4,5.51-12.31,5.51-23.71c0-9.59-1.92-16.6-5.76-21.03
		c-3.84-4.43-9.04-6.64-15.61-6.64c-6.3,0-11.35,2.25-15.16,6.74C33.13,35.09,31.22,42.52,31.22,52.91z"/>
	<path d="M109.07,29.83h26.12v12.03c3.91-4.91,7.86-8.42,11.86-10.53c4-2.11,8.87-3.16,14.61-3.16c7.76,0,13.84,2.33,18.23,6.99
		c4.39,4.66,6.58,11.85,6.58,21.59v46.93h-28.19v-40.6c0-4.63-0.85-7.91-2.55-9.84c-1.7-1.92-4.09-2.89-7.17-2.89
		c-3.4,0-6.16,1.3-8.27,3.89c-2.11,2.6-3.17,7.25-3.17,13.97v35.46h-28.05V29.83z"/>
	<path d="M273.9,73.76h-56.25c0.51,4.54,1.72,7.93,3.65,10.15c2.71,3.2,6.25,4.8,10.62,4.8c2.76,0,5.38-0.7,7.86-2.09
		c1.52-0.88,3.15-2.43,4.89-4.66l27.64,2.57c-4.23,7.42-9.33,12.74-15.3,15.96s-14.54,4.83-25.71,4.83c-9.7,0-17.33-1.38-22.88-4.14
		c-5.56-2.76-10.17-7.14-13.82-13.14s-5.48-13.06-5.48-21.17c0-11.54,3.66-20.88,10.99-28.02c7.33-7.14,17.45-10.71,30.36-10.71
		c10.48,0,18.75,1.6,24.81,4.8c6.07,3.2,10.68,7.83,13.85,13.91c3.17,6.07,4.76,13.97,4.76,23.71V73.76z M245.37,60.21
		c-0.55-5.47-2.01-9.38-4.38-11.75c-2.37-2.36-5.48-3.55-9.34-3.55c-4.46,0-8.02,1.79-10.68,5.35c-1.7,2.22-2.78,5.54-3.24,9.94
		H245.37z"/>
	<path d="M278.48,1.74h46.39c9.14,0,16.53,1.25,22.16,3.75c5.63,2.5,10.28,6.09,13.96,10.78c3.68,4.68,6.34,10.13,8,16.34
		c1.65,6.21,2.48,12.79,2.48,19.75c0,10.89-1.23,19.34-3.69,25.34c-2.46,6-5.87,11.03-10.24,15.09c-4.37,4.06-9.05,6.75-14.06,8.1
		c-6.85,1.85-13.05,2.78-18.61,2.78h-46.39V1.74z M309.7,24.82v55.69h7.65c6.52,0,11.17-0.73,13.92-2.19s4.92-4.01,6.48-7.65
		c1.56-3.64,2.34-9.54,2.34-17.69c0-10.8-1.75-18.19-5.24-22.18c-3.49-3.99-9.28-5.98-17.37-5.98H309.7z"/>
	<path d="M375.69,29.83h26.26v12.1c2.53-5.24,5.14-8.84,7.82-10.81c2.69-1.97,6.01-2.96,9.96-2.96c4.14,0,8.66,1.3,13.58,3.89
		l-8.69,20.16c-3.31-1.39-5.93-2.08-7.86-2.08c-3.68,0-6.53,1.53-8.55,4.59c-2.89,4.31-4.34,12.38-4.34,24.19v24.75h-28.19V29.83z"
		/>
	<path d="M455.47,53.74l-26.81-2.85c1.01-4.73,2.47-8.45,4.38-11.16c1.91-2.71,4.65-5.06,8.24-7.06c2.57-1.44,6.11-2.55,10.62-3.34
		c4.5-0.79,9.37-1.18,14.61-1.18c8.41,0,15.16,0.48,20.26,1.43s9.35,2.93,12.75,5.94c2.39,2.09,4.27,5.04,5.65,8.86
		c1.38,3.82,2.07,7.47,2.07,10.95v32.61c0,3.48,0.22,6.2,0.65,8.17c0.44,1.97,1.39,4.48,2.86,7.54h-26.33
		c-1.06-1.9-1.75-3.35-2.07-4.34c-0.32-1-0.64-2.56-0.96-4.69c-3.68,3.57-7.33,6.12-10.96,7.65c-4.96,2.04-10.73,3.06-17.3,3.06
		c-8.73,0-15.36-2.04-19.88-6.12c-4.53-4.08-6.79-9.11-6.79-15.09c0-5.61,1.63-10.22,4.89-13.83c3.26-3.62,9.28-6.3,18.06-8.06
		c10.52-2.13,17.35-3.63,20.47-4.48c3.12-0.86,6.43-1.98,9.92-3.37c0-3.48-0.71-5.91-2.14-7.3c-1.42-1.39-3.93-2.08-7.51-2.08
		c-4.6,0-8.04,0.74-10.34,2.22C458.02,48.37,456.57,50.54,455.47,53.74z M479.8,68.62c-3.86,1.39-7.88,2.62-12.06,3.68
		c-5.7,1.53-9.31,3.04-10.82,4.52c-1.56,1.53-2.34,3.27-2.34,5.21c0,2.23,0.77,4.04,2.31,5.46c1.54,1.41,3.8,2.12,6.79,2.12
		c3.12,0,6.03-0.76,8.72-2.29c2.69-1.53,4.59-3.39,5.72-5.6c1.13-2.2,1.69-5.06,1.69-8.59V68.62z"/>
	<path d="M566.68,29.83h26.26v69.73l0.07,3.27c0,4.63-0.98,9.05-2.93,13.24c-1.95,4.19-4.55,7.59-7.79,10.18
		c-3.24,2.6-7.35,4.47-12.34,5.63c-4.99,1.16-10.7,1.74-17.13,1.74c-14.71,0-24.8-2.22-30.29-6.67c-5.49-4.45-8.24-10.41-8.24-17.87
		c0-0.93,0.05-2.18,0.14-3.75l27.23,3.13c0.69,2.55,1.75,4.31,3.17,5.28c2.07,1.44,4.66,2.16,7.79,2.16c4.04,0,7.07-1.09,9.06-3.27
		c2-2.18,3-5.98,3-11.4V90.03c-2.76,3.29-5.51,5.68-8.27,7.16c-4.32,2.32-8.98,3.48-13.99,3.48c-9.79,0-17.69-4.31-23.71-12.93
		c-4.27-6.12-6.41-14.21-6.41-24.26c0-11.49,2.76-20.25,8.27-26.28c5.51-6.02,12.73-9.04,21.64-9.04c5.7,0,10.4,0.97,14.1,2.92
		c3.7,1.95,7.16,5.17,10.37,9.66V29.83z M540.28,65.63c0,5.33,1.13,9.28,3.38,11.85c2.25,2.57,5.21,3.86,8.89,3.86
		c3.49,0,6.42-1.33,8.79-4c2.37-2.67,3.55-6.68,3.55-12.06c0-5.38-1.24-9.49-3.72-12.34c-2.48-2.85-5.51-4.28-9.1-4.28
		s-6.45,1.31-8.58,3.93C541.34,55.21,540.28,59.56,540.28,65.63z"/>
	<path d="M595.86,66.95c0-11.26,3.77-20.54,11.3-27.84c7.54-7.3,17.71-10.95,30.53-10.95c14.66,0,25.73,4.29,33.22,12.86
		c6.02,6.91,9.03,15.41,9.03,25.51c0,11.36-3.73,20.66-11.2,27.91c-7.47,7.25-17.79,10.88-30.98,10.88
		c-11.76,0-21.28-3.01-28.54-9.04C600.32,88.83,595.86,79.05,595.86,66.95z M623.98,66.88c0,6.58,1.32,11.45,3.96,14.6
		c2.64,3.15,5.96,4.73,9.96,4.73c4.04,0,7.36-1.55,9.96-4.66c2.6-3.1,3.89-8.09,3.89-14.95c0-6.4-1.31-11.16-3.93-14.29
		c-2.62-3.13-5.86-4.69-9.72-4.69c-4.09,0-7.47,1.59-10.13,4.76C625.31,55.56,623.98,60.39,623.98,66.88z"/>
	<path d="M682.87,29.83H709v12.03c3.91-4.91,7.86-8.42,11.86-10.53c4-2.11,8.87-3.16,14.61-3.16c7.76,0,13.84,2.33,18.23,6.99
		c4.39,4.66,6.58,11.85,6.58,21.59v46.93h-28.19v-40.6c0-4.63-0.85-7.91-2.55-9.84c-1.7-1.92-4.09-2.89-7.17-2.89
		c-3.4,0-6.16,1.3-8.27,3.89c-2.11,2.6-3.17,7.25-3.17,13.97v35.46h-28.05V29.83z"/>
</g>
</svg>
